PathFileType	4	(X/Y/Z)	./resultDataOpenSim/trcMotMarkerGrf/sub09/qtm-03-01.trc
DataRate	CameraRate	NumFrames	NumMarkers	Units	OrigDataRate	OrigDataStartFrame	OrigNumFrames
250.000000	250.000000	11	24	m	250.000000	358	477
Frame#	Time	L.Toe.Tip			R.Toe.Tip			L.Ankle.Lat			R.Ankle.Lat			L.Ankle.Med			R.Ankle.Med			L.Heel			R.Heel			L.Knee.Lat			R.Knee.Lat			L.Knee.Med			R.Knee.Med			L.Thigh.Upper			R.Thigh.Upper			L.ASIS			R.ASIS			V.Sacral			L.Acromium			R.Acromium			C7			L.Elbow			R.Elbow			L.Wrist.Lat			R.Wrist.Lat
		X1	Y1	Z1	X2	Y2	Z2	X3	Y3	Z3	X4	Y4	Z4	X5	Y5	Z5	X6	Y6	Z6	X7	Y7	Z7	X8	Y8	Z8	X9	Y9	Z9	X10	Y10	Z10	X11	Y11	Z11	X12	Y12	Z12	X13	Y13	Z13	X14	Y14	Z14	X15	Y15	Z15	X16	Y16	Z16	X17	Y17	Z17	X18	Y18	Z18	X19	Y19	Z19	X20	Y20	Z20	X21	Y21	Z21	X22	Y22	Z22	X23	Y23	Z23	X24	Y24	Z24

358	1.428	0.68766676	0.13497791	-0.049823518	0.98862129	0.038970779	0.083363656	0.64115239	0.28290635	-0.091134439	0.8413015	0.054528374	0.12461473	0.66570376	0.27230052	0.0040338399	0.84786779	0.092383499	0.031830326	0.56976655	0.31891828	-0.046880288	0.7707834	0.034907321	0.078688661	0.9832085	0.498805	-0.10912211	0.93780029	0.50253542	0.17550721	0.98407774	0.48686573	0.019560769	0.91319679	0.49097632	0.051385748	0.83038233	0.88097251	-0.13043899	0.83816763	0.89895846	0.238695	0.90381821	0.9708002	-0.073847262	0.91545074	0.98425061	0.16371813	0.74047774	1.0301227	0.046816129	0.89420036	1.4277952	-0.13210446	0.87714187	1.4426135	0.19885922	0.81685062	1.4828088	0.031552665	0.75728936	1.0848855	-0.19013627	0.75601579	1.0945559	0.29527759	0.90461358	0.86232282	-0.20755875	0.95213203	0.89855625	0.30059586
359	1.432	0.70462768	0.13417411	-0.051154855	0.98866335	0.038946397	0.083349568	0.65384105	0.28076423	-0.09066947	0.84117261	0.054700436	0.12455705	0.67871663	0.26998702	0.004409615	0.84804584	0.092477365	0.031727312	0.5816322	0.31484471	-0.045907901	0.7707391	0.035104982	0.078540702	0.99274775	0.50166419	-0.10862359	0.93895641	0.50243434	0.17512565	0.99357919	0.48985553	0.019750848	0.91443902	0.49100867	0.051035873	0.8364551	0.88228117	-0.13045027	0.84222506	0.89921535	0.23911153	0.90912226	0.97209646	-0.073639721	0.92044409	0.98509351	0.16394058	0.74556436	1.0309855	0.046751778	0.89855878	1.4287449	-0.13225853	0.88225576	1.4437566	0.19872568	0.8215753	1.4837274	0.031544768	0.76114555	1.0861018	-0.19012632	0.7618853	1.0954198	0.29591452	0.90807832	0.86338219	-0.2085875	0.95932068	0.90077255	0.29997388
360	1.436	0.72159771	0.13324444	-0.052484118	0.98867871	0.038908455	0.083337939	0.66660708	0.2783625	-0.09022311	0.84110225	0.054860511	0.12446431	0.69193233	0.26743122	0.0047165445	0.84816941	0.092569901	0.031656598	0.59357441	0.31039953	-0.04497847	0.77056633	0.035282533	0.07842201	1.0022785	0.5044414	-0.10811204	0.94024727	0.50232283	0.17492216	1.0048511	0.49284491	0.020274387	0.91578133	0.49100277	0.050791573	0.84285971	0.88356369	-0.13036179	0.84617742	0.89945034	0.23954829	0.91442001	0.97335172	-0.073443803	0.92543092	0.98589369	0.16414848	0.75061397	1.0317895	0.046687967	0.9029285	1.4296482	-0.13241659	0.88737225	1.4448521	0.19859296	0.82630983	1.4846065	0.031564033	0.7650173	1.0872786	-0.19013284	0.76773116	1.0962219	0.29655129	0.91154493	0.86439961	-0.20962681	0.96652326	0.90294872	0.29934529
361	1.44	0.73847992	0.13212909	-0.053725728	0.98867541	0.038859	0.083328449	0.67947606	0.27570186	-0.089810954	0.84108994	0.05499518	0.12433984	0.70541936	0.26464293	0.0049341855	0.84826976	0.092648629	0.031578886	0.60561824	0.30561055	-0.044057812	0.7703809	0.035444237	0.078298968	1.0118329	0.50709932	-0.10757913	0.94177123	0.50219728	0.17502642	1.0197291	0.49598505	0.02168465	0.91715829	0.49097086	0.05067553	0.8492793	0.88480056	-0.13027662	0.85040536	0.89982619	0.23976839	0.91973255	0.97455948	-0.07326442	0.93041297	0.98664874	0.16434474	0.75561489	1.0325298	0.0466312	0.90731251	1.4305011	-0.1325684	0.89247921	1.445898	0.19845533	0.83106179	1.48544	0.031642087	0.76890905	1.0884048	-0.19014449	0.77357336	1.0969683	0.29717332	0.91506639	0.86538054	-0.21064313	0.97372717	0.90507818	0.29871084
362	1.444	0.75525927	0.13081404	-0.054836932	0.98867375	0.038811193	0.083315407	0.69245577	0.27280147	-0.0894301	0.84111957	0.05510304	0.1241993	0.71914482	0.26165173	0.0050809618	0.8483876	0.092703366	0.031461533	0.6177854	0.30050457	-0.043101227	0.77036751	0.035620194	0.078118625	1.0213573	0.50962677	-0.10703963	0.94348809	0.50206085	0.17539665	1.0378862	0.4993088	0.024007268	0.91854177	0.49091938	0.050648362	0.85539507	0.88596895	-0.13027582	0.85496357	0.90033036	0.23977098	0.92507401	0.97571606	-0.073114402	0.93538879	0.98735694	0.16452574	0.76057775	1.0332134	0.046583758	0.91171221	1.4313006	-0.13271159	0.89756588	1.4468924	0.19830919	0.83582541	1.4862225	0.031768187	0.77281936	1.0894678	-0.19014741	0.77939727	1.0976711	0.29774557	0.91866796	0.86632247	-0.21162174	0.98088261	0.90714676	0.29806608
363	1.448	0.77199379	0.12933179	-0.055824847	0.98868973	0.038774739	0.083292982	0.70554403	0.26967712	-0.089071035	0.84117895	0.055190945	0.12405575	0.73306843	0.25848331	0.0051812078	0.8485339	0.092733437	0.031309898	0.63009264	0.2951133	-0.042120011	0.77055678	0.035840574	0.077877211	1.0307279	0.51206332	-0.10653358	0.94526038	0.50191847	0.17586948	1.056006	0.50260692	0.026438391	0.91995872	0.49083788	0.050645502	0.86114106	0.88706182	-0.13036349	0.85957557	0.90085974	0.23969841	0.93042784	0.97682087	-0.072993632	0.94035515	0.98801604	0.16468463	0.7655339	1.0338541	0.046535121	0.91612449	1.4320439	-0.13285559	0.90262925	1.4478334	0.19815555	0.84059203	1.4869571	0.031885339	0.77673136	1.090458	-0.19012663	0.78518406	1.0983417	0.29824749	0.92232316	0.86721325	-0.21258	0.98794886	0.90914274	0.29740555
364	1.452	0.78873929	0.12771337	-0.05670604	0.9887234	0.038745512	0.083260737	0.71875229	0.26632184	-0.088736807	0.84125789	0.055268696	0.12391491	0.74716936	0.25514956	0.005246504	0.8486884	0.092751913	0.031155332	0.64255608	0.2894795	-0.04118183	0.77079908	0.036103523	0.077626704	1.0398538	0.51446168	-0.10609542	0.9469613	0.50177205	0.17629402	1.0705139	0.50560061	0.028028172	0.92142424	0.49072557	0.050632822	0.8666724	0.88809323	-0.13051012	0.86372312	0.90132882	0.23971142	0.9357528	0.97787151	-0.072883871	0.94531118	0.98862503	0.16481906	0.77053469	1.0344666	0.046459266	0.92054224	1.4327273	-0.13301048	0.90767556	1.4487209	0.19799788	0.84535754	1.4876525	0.031945466	0.780639	1.0913765	-0.19008152	0.7909346	1.0989843	0.29869831	0.92599088	0.86804191	-0.213541	0.99492979	0.91106643	0.29673124
365	1.456	0.80550086	0.12596648	-0.057477114	0.98876442	0.038711433	0.083222847	0.73209488	0.26271977	-0.08843522	0.84134545	0.055343858	0.12377671	0.7613423	0.25166386	0.0053071373	0.8488343	0.092781253	0.031020197	0.65520428	0.28365455	-0.040360233	0.77097063	0.036372392	0.077421972	1.0487214	0.51683312	-0.10573434	0.9485205	0.5016171	0.17658302	1.0800055	0.50814925	0.028364506	0.92291121	0.49060315	0.050643075	0.87218722	0.88908166	-0.13069621	0.86692805	0.90170457	0.23991883	0.94102626	0.97886316	-0.072773141	0.95025991	0.98918614	0.16493198	0.77563088	1.0350565	0.046325605	0.92496163	1.4333495	-0.13317451	0.91271751	1.4495558	0.19784118	0.85012007	1.488314	0.031947529	0.78455687	1.0922306	-0.19002732	0.7966609	1.0995931	0.29913709	0.92965731	0.86880652	-0.21450954	1.0018489	0.91292326	0.29605044
366	1.46	0.82224531	0.1240989	-0.058117036	0.98880423	0.038665072	0.083183435	0.74555956	0.25887407	-0.088159745	0.84143387	0.055419036	0.12364018	0.77546006	0.24804573	0.0053981837	0.84899327	0.092842341	0.030903537	0.66809563	0.27768172	-0.039716941	0.77109864	0.036598633	0.077306052	1.0573514	0.51914938	-0.10545021	0.94990952	0.50144059	0.17668911	1.0847681	0.51025172	0.02749586	0.92438133	0.49050173	0.050751173	0.87781365	0.89003393	-0.13091311	0.86936101	0.90201764	0.24027866	0.94626091	0.97979216	-0.072669164	0.95520483	0.98970226	0.16502691	0.78082473	1.0356183	0.046131032	0.92938849	1.433916	-0.13333661	0.91776587	1.4503383	0.1976899	0.85487879	1.4889311	0.031917822	0.78850615	1.0930258	-0.18998061	0.80237896	1.1001585	0.29958842	0.93333763	0.86951114	-0.21547382	1.0087171	0.91471479	0.29536805
367	1.464	0.83895707	0.12214202	-0.05861222	0.98884579	0.038615006	0.083142199	0.75911818	0.25480854	-0.087896414	0.84152374	0.055493973	0.12350743	0.78952006	0.24430921	0.0055201869	0.84922312	0.09294659	0.030801412	0.68128445	0.27158373	-0.03928832	0.77128878	0.036747814	0.077321269	1.065778	0.52137975	-0.10524176	0.95117972	0.50123113	0.17665937	1.0863299	0.51202477	0.025807343	0.92582402	0.49044804	0.050986695	0.88356183	0.89094316	-0.13114754	0.87200984	0.9023451	0.24058298	0.95147188	0.98065861	-0.072582018	0.96014631	0.99017516	0.16510609	0.78605095	1.0361452	0.045919182	0.93383441	1.4344331	-0.13349201	0.9228195	1.451069	0.19754285	0.85963587	1.4894878	0.031876893	0.79250241	1.0937615	-0.18994945	0.80811021	1.1006755	0.30005642	0.93705167	0.87016143	-0.21642059	1.0155359	0.91644057	0.29468548
368	1.468	0.85570153	0.12013849	-0.058979335	0.98890313	0.038582955	0.083094711	0.77275966	0.25054783	-0.087641116	0.84162183	0.055571818	0.12338316	0.80361166	0.24045991	0.0056520784	0.8495667	0.093094782	0.030727297	0.69473435	0.26537217	-0.039030185	0.7715857	0.036828137	0.077463785	1.0740446	0.52350581	-0.1050934	0.95245726	0.50100207	0.17664543	1.0876607	0.51370698	0.024047869	0.92725995	0.49044376	0.051280678	0.88932693	0.89179458	-0.13137194	0.87577484	0.90274015	0.24065229	0.9566589	0.98146582	-0.072509272	0.96507993	0.99060754	0.16517014	0.79123541	1.0366374	0.045743726	0.93830679	1.4349008	-0.13364902	0.92786644	1.4517501	0.19739411	0.86439859	1.4899858	0.031830157	0.7965464	1.0944299	-0.18992822	0.81387211	1.1011436	0.30053496	0.94080415	0.87076366	-0.21734522	1.0223109	0.9181021	0.2940034
